<?xml version="1.0" encoding="utf-8" standalone="no"?>
<!DOCTYPE svg PUBLIC "-//W3C//DTD SVG 1.1//EN"
  "http://www.w3.org/Graphics/SVG/1.1/DTD/svg11.dtd">
<svg xmlns:xlink="http://www.w3.org/1999/xlink" width="189pt" height="189pt" viewBox="0 0 189 189" xmlns="http://www.w3.org/2000/svg" version="1.1">
 <metadata>
  <rdf:RDF xmlns:dc="http://purl.org/dc/elements/1.1/" xmlns:cc="http://creativecommons.org/ns#" xmlns:rdf="http://www.w3.org/1999/02/22-rdf-syntax-ns#">
   <cc:Work>
    <dc:type rdf:resource="http://purl.org/dc/dcmitype/StillImage"/>
    <dc:date>2024-12-27T13:46:50.877381</dc:date>
    <dc:format>image/svg+xml</dc:format>
    <dc:creator>
     <cc:Agent>
      <dc:title>Matplotlib v3.9.2, https://matplotlib.org/</dc:title>
     </cc:Agent>
    </dc:creator>
   </cc:Work>
  </rdf:RDF>
 </metadata>
 <defs>
  <style type="text/css">*{stroke-linejoin: round; stroke-linecap: butt}</style>
 </defs>
 <g id="figure_1">
  <g id="patch_1">
   <path d="M 0 189 
L 189 189 
L 189 0 
L 0 0 
L 0 189 
z
" style="fill: none"/>
  </g>
  <g id="axes_1">
   <g id="line2d_1">
    <path d="M 110.7 110.7 
L 166.5 110.7 
" clip-path="url(#p6ede64d41f)" style="fill: none; stroke: #002e4a; stroke-width: 3; stroke-linecap: square"/>
   </g>
   <g id="line2d_2">
    <path d="M 116.1 116.1 
L 161.1 116.1 
" clip-path="url(#p6ede64d41f)" style="fill: none; stroke: #d62929; stroke-width: 3; stroke-linecap: square"/>
   </g>
   <g id="line2d_3">
    <path d="M 121.5 121.5 
L 155.7 121.5 
" clip-path="url(#p6ede64d41f)" style="fill: none; stroke: #f78000; stroke-width: 3; stroke-linecap: square"/>
   </g>
   <g id="line2d_4">
    <path d="M 126.9 126.9 
L 150.3 126.9 
" clip-path="url(#p6ede64d41f)" style="fill: none; stroke: #fcbf4a; stroke-width: 3; stroke-linecap: square"/>
   </g>
   <g id="text_1">
    <path d="M 16.88 89.716094 
Q 16.81625 89.285781 16.715312 89.184844 
Q 16.949062 88.589844 17.060625 88.010781 
Q 17.1775 87.426406 17.246562 86.895156 
Q 17.310312 86.427656 17.395312 86.029219 
Q 17.480312 85.630781 17.613125 85.269531 
Q 18.17625 85.136719 18.457812 84.786094 
Q 18.739375 84.435469 18.904062 84.169844 
Q 19.504375 84.137969 19.685 84.339844 
Q 19.870937 84.536406 20.099375 85.003906 
Q 20.269375 85.365156 20.566875 85.784844 
Q 20.864375 86.199219 21.464687 86.427656 
Q 21.560312 86.794219 21.693125 87.128906 
Q 21.825937 87.458281 21.995937 87.824844 
Q 22.293437 88.520781 22.559062 89.269844 
Q 22.824687 90.013594 22.856562 90.677656 
Q 22.458125 91.442656 22.240312 92.441406 
Q 22.027812 93.434844 21.974687 94.449531 
Q 21.926875 95.458906 22.027812 96.388594 
Q 22.12875 97.318281 22.357187 97.950469 
L 22.559062 98.481719 
L 23.286875 98.417969 
Q 24.482187 98.115156 25.44375 97.737969 
Q 26.410625 97.355469 27.239375 96.824219 
Q 28.068125 96.292969 28.833125 95.612969 
Q 29.598125 94.927656 30.426875 93.997969 
Q 31.22375 93.068281 31.855937 91.894219 
Q 32.488125 90.714844 32.9025 89.455781 
Q 33.316875 88.191406 33.545312 86.932344 
Q 33.779062 85.667969 33.848125 84.568281 
Q 34.480312 84.270781 34.544062 83.606719 
L 34.443125 83.176406 
Q 34.3475 83.011719 34.363437 82.862969 
Q 34.379375 82.708906 34.443125 82.576094 
Q 34.70875 81.816406 35.574687 81.449844 
Q 36.169687 81.848281 36.685 82.315781 
Q 37.200312 82.777969 37.630625 83.240156 
Q 37.699687 84.137969 37.89625 84.786094 
Q 38.098125 85.434219 38.331875 86.029219 
Q 38.560312 86.597656 38.740937 87.128906 
Q 38.926875 87.660156 38.995937 88.419844 
Q 38.66125 89.418594 38.5125 90.300469 
Q 38.36375 91.177031 38.230937 92.138594 
L 38.161875 92.505156 
Q 37.566875 93.535781 36.9825 94.614219 
Q 36.403437 95.692656 36.036875 96.489531 
Q 35.840312 96.691406 35.691562 96.957031 
Q 35.542812 97.222656 35.41 97.488281 
Q 35.340937 97.583906 35.224062 97.817656 
Q 35.107187 98.051406 35.011562 98.152344 
L 34.214687 97.849531 
L 34.012812 98.880156 
L 33.481562 99.012969 
L 33.083125 99.480469 
Q 32.318125 100.808594 31.473437 101.706406 
Q 30.62875 102.598906 29.582187 103.300156 
Q 28.535625 103.996094 27.223437 104.612344 
Q 25.91125 105.223281 24.216562 105.919219 
Q 23.5525 105.818281 23.069062 105.802344 
Q 22.590937 105.786406 22.12875 105.754531 
Q 21.66125 105.754531 21.230937 105.722656 
Q 20.800625 105.685469 20.232187 105.621719 
Q 20.099375 105.324219 19.865625 105.191406 
Q 19.637187 105.058594 19.435312 105.058594 
Q 18.77125 104.723906 18.436562 104.128906 
Q 18.107187 103.528594 17.745937 102.800781 
Q 17.575937 102.402344 17.395312 102.003906 
Q 17.214687 101.605469 16.949062 101.238906 
L 17.613125 101.037031 
L 16.747187 100.043594 
Q 16.64625 99.942656 16.529375 99.847031 
Q 16.417812 99.746094 16.316875 99.613281 
L 16.316875 98.981094 
Q 16.184062 96.255781 16.2 93.950156 
Q 16.215937 91.644531 16.81625 89.880781 
L 16.88 89.716094 
z
M 46.895625 105.786406 
Q 45.965937 106.083906 44.871562 106.381406 
Q 43.777187 106.684219 42.6775 106.684219 
Q 41.02 106.684219 40.058437 105.855469 
Q 39.888437 105.488906 39.755625 105.356094 
Q 39.66 105.223281 39.575 105.074531 
Q 39.49 104.925781 39.458125 104.660156 
Q 39.059687 104.192656 38.825937 103.581719 
Q 38.5975 102.965469 38.5125 102.317344 
Q 38.4275 101.669219 38.475312 101.005156 
Q 38.528437 100.341094 38.693125 99.746094 
Q 38.762187 99.613281 38.778125 99.480469 
Q 38.794062 99.347656 38.825937 99.177656 
Q 38.95875 98.646406 39.1075 98.152344 
Q 39.261562 97.652969 39.527187 97.286406 
Q 39.394375 96.988906 39.527187 96.622344 
Q 39.66 96.255781 39.824687 95.958281 
Q 40.286875 94.699219 40.600312 93.817344 
Q 40.919062 92.935469 41.25375 92.074844 
Q 41.816875 90.582031 42.310937 89.121094 
Q 42.810312 87.660156 43.20875 85.965469 
Q 43.474375 85.800781 43.607187 85.731719 
Q 43.809062 85.667969 43.941875 85.630781 
Q 44.536875 85.933594 45.33375 86.215156 
Q 46.130625 86.496719 46.661875 86.496719 
Q 46.9275 86.661406 46.99125 86.746406 
Q 47.060312 86.826094 47.129375 86.895156 
Q 47.495937 87.325469 47.761562 87.777031 
Q 48.027187 88.223281 47.92625 88.951094 
Q 47.724375 89.253906 47.62875 89.253906 
Q 47.45875 89.917969 47.278125 90.385469 
Q 47.0975 90.847656 46.895625 91.309844 
Q 46.661875 91.809219 46.46 92.308594 
Q 46.263437 92.802656 46.130625 93.535781 
Q 45.997812 93.700469 45.95 93.833281 
Q 45.902187 93.966094 45.833125 94.130781 
Q 45.769375 94.300781 45.684375 94.481406 
Q 45.599375 94.662031 45.434687 94.794844 
Q 45.33375 95.660781 45.115937 96.192031 
Q 44.903437 96.723281 44.669687 97.254531 
Q 44.27125 98.216094 43.957812 99.182969 
Q 43.644375 100.144531 43.575312 101.371719 
Q 43.74 101.302656 43.88875 101.302656 
Q 44.042812 101.302656 44.175625 101.302656 
Q 44.473125 101.302656 44.871562 101.403594 
Q 45.865 100.872344 47.044375 100.776719 
Q 48.22375 100.675781 49.387187 100.638594 
Q 49.849375 100.638594 50.311562 100.638594 
Q 50.779062 100.638594 51.1775 100.574844 
Q 51.480312 100.739531 51.56 100.755469 
Q 51.645 100.771406 51.809687 100.771406 
Q 52.043437 100.771406 52.208125 100.808594 
Q 52.606562 101.169844 52.973125 101.339844 
Q 53.339687 101.504531 53.738125 101.637344 
Q 54.099375 101.770156 54.45 101.918906 
Q 54.800625 102.067656 55.13 102.333281 
L 55.36375 103.762344 
Q 55.5975 104.059844 55.560312 104.160781 
Q 55.560312 104.426406 55.4275 104.559219 
L 55.496562 104.925781 
Q 54.997187 105.021406 54.81125 105.154219 
Q 54.630625 105.287031 54.465937 105.457031 
Q 54.200312 105.488906 54.083437 105.488906 
Q 53.966562 105.488906 53.870937 105.488906 
Q 53.403437 105.488906 52.739375 105.653594 
Q 51.841562 105.356094 50.88 105.356094 
Q 50.513437 105.356094 50.115 105.387969 
Q 49.716562 105.419844 49.318125 105.457031 
Q 48.919687 105.520781 48.505312 105.557969 
Q 48.090937 105.589844 47.660625 105.589844 
L 46.895625 105.786406 
z
M 72.430156 90.183594 
Q 71.601406 90.183594 70.639844 90.300469 
Q 69.678281 90.412031 68.748594 90.544844 
Q 68.084531 90.645781 67.468281 90.714844 
Q 66.852031 90.778594 66.357969 90.810469 
Q 66.124219 91.543594 65.890469 92.106719 
Q 65.656719 92.669844 65.391094 93.201094 
Q 65.125469 93.769531 64.907656 94.348594 
Q 64.695156 94.927656 64.498594 95.591719 
Q 64.163906 96.122969 63.946094 96.574531 
Q 63.733594 97.020781 63.600781 97.583906 
Q 63.202344 98.083281 63.000469 98.630469 
Q 62.803906 99.177656 62.702969 99.576094 
L 62.570156 99.974531 
Q 62.373594 100.176406 62.336406 100.293281 
Q 62.304531 100.410156 62.171719 100.505781 
Q 62.139844 100.872344 61.937969 101.238906 
Q 61.874219 101.403594 61.837031 101.552344 
Q 61.805156 101.701094 61.805156 101.770156 
Q 61.805156 102.099531 61.640469 102.200469 
Q 61.672344 102.365156 61.640469 102.551094 
Q 61.608594 102.731719 61.576719 102.896406 
Q 61.475781 103.294844 61.507656 103.528594 
Q 61.608594 103.661406 61.688281 103.762344 
Q 61.773281 103.863281 61.805156 104.027969 
Q 62.007031 104.160781 62.107969 104.192656 
Q 62.240781 104.293594 62.506406 104.426406 
L 62.803906 104.755781 
Q 62.968594 105.722656 62.506406 106.285781 
Q 62.007031 106.917969 60.811719 106.917969 
L 60.413281 106.917969 
Q 60.248594 106.753281 60.211406 106.652344 
Q 59.945781 106.551406 59.781094 106.482344 
Q 59.616406 106.418594 59.483594 106.222031 
Q 59.053281 106.020156 58.787656 105.887344 
L 58.484844 105.722656 
Q 58.484844 105.356094 58.484844 105.324219 
Q 58.256406 105.021406 58.139531 104.660156 
Q 58.022656 104.293594 57.953594 103.927031 
Q 57.889844 103.629531 57.804844 103.363906 
Q 57.725156 103.098281 57.592344 102.896406 
Q 57.523281 100.973281 57.953594 99.645156 
Q 58.389219 98.317031 58.851406 97.089844 
Q 59.117031 96.425781 59.382656 95.745781 
Q 59.648281 95.060469 59.850156 94.332656 
L 60.147656 93.997969 
Q 60.381406 93.466719 60.530156 93.121406 
Q 60.678906 92.770781 60.843594 92.404219 
Q 60.944531 92.175781 61.024219 91.957969 
Q 61.109219 91.740156 61.178281 91.575469 
Q 60.976406 91.575469 60.811719 91.591406 
Q 60.647031 91.607344 60.477031 91.644531 
Q 60.280469 91.676406 60.110469 91.692344 
Q 59.945781 91.708281 59.781094 91.708281 
Q 59.547344 91.708281 59.451719 91.676406 
Q 59.085156 91.841094 58.654844 91.841094 
L 58.320156 91.841094 
Q 58.219219 91.841094 58.134219 91.825156 
Q 58.054531 91.809219 57.990781 91.809219 
Q 57.656094 91.809219 57.459531 91.910156 
Q 57.061094 91.910156 56.694531 91.910156 
L 56.359844 91.910156 
Q 56.296094 91.910156 56.195156 91.926094 
Q 56.094219 91.942031 56.030469 91.942031 
Q 55.796719 91.942031 55.531094 91.894219 
Q 55.265469 91.841094 54.967969 91.676406 
Q 54.569531 91.145156 54.436719 91.113281 
L 54.139219 90.714844 
Q 54.102031 90.512969 54.032969 90.332344 
Q 53.969219 90.146406 53.905469 89.917969 
Q 53.772656 89.583281 53.655781 89.200781 
Q 53.538906 88.818281 53.538906 88.287031 
Q 53.570781 88.021406 53.671719 87.888594 
Q 53.772656 87.755781 53.836406 87.660156 
L 53.937344 87.160781 
L 54.367656 87.192656 
L 55.297344 87.192656 
Q 56.359844 87.192656 57.454219 87.112969 
Q 58.553906 87.027969 59.717344 86.927031 
Q 60.381406 86.863281 61.061406 86.799531 
Q 61.741406 86.730469 62.469219 86.661406 
Q 62.602031 86.363906 62.734844 86.098281 
L 63.069531 85.933594 
Q 63.664531 85.896406 63.914219 86.082344 
Q 64.163906 86.262969 64.328594 86.427656 
Q 65.061719 86.363906 65.805469 86.284219 
Q 66.554531 86.199219 67.319531 86.066406 
Q 68.445781 85.896406 69.593281 85.763594 
Q 70.740781 85.630781 71.803281 85.630781 
Q 72.265469 85.630781 72.695781 85.667969 
Q 73.131406 85.699844 73.492656 85.763594 
L 73.827344 85.997344 
Q 73.928281 86.199219 74.108906 86.363906 
Q 74.289531 86.528594 74.491406 86.693281 
Q 74.889844 87.059844 75.288281 87.559219 
Q 75.686719 88.058594 75.585781 89.020156 
Q 75.320156 89.418594 75.187344 89.482344 
L 74.889844 89.880781 
L 74.555156 89.848906 
Q 74.358594 89.848906 74.188594 89.902031 
Q 74.023906 89.949844 73.859219 90.013594 
Q 73.726406 90.082656 73.593594 90.135781 
Q 73.460781 90.183594 73.296094 90.215469 
Q 72.998594 90.215469 72.812656 90.199531 
Q 72.632031 90.183594 72.430156 90.183594 
z
M 75.186016 102.699844 
Q 74.824766 104.027969 74.537891 104.707969 
Q 74.256328 105.387969 73.693203 106.121094 
Q 73.262891 106.052031 73.092891 106.216719 
Q 72.928203 106.386719 72.731641 106.519531 
Q 72.434141 106.583281 72.301328 106.514219 
Q 72.168516 106.450469 72.067578 106.365469 
Q 71.966641 106.285781 71.817891 106.200781 
Q 71.669141 106.121094 71.371641 106.121094 
Q 71.302578 105.855469 71.217578 105.621719 
Q 71.137891 105.387969 70.771328 105.457031 
Q 70.840391 105.191406 70.803203 105.010781 
Q 70.771328 104.824844 70.718203 104.676094 
Q 70.670391 104.527344 70.638516 104.378594 
Q 70.606641 104.224531 70.670391 103.996094 
Q 70.505703 103.996094 70.404766 103.762344 
Q 70.309141 103.528594 70.176328 103.294844 
Q 70.271953 102.699844 70.372891 102.168594 
Q 70.473828 101.637344 70.622578 101.175156 
Q 70.771328 100.707656 70.872266 100.245469 
Q 70.973203 99.777969 70.771328 99.278594 
Q 70.904141 99.379531 70.967891 99.230781 
Q 71.036953 99.082031 71.068828 98.832344 
Q 71.106016 98.582656 71.106016 98.332969 
Q 71.106016 98.083281 71.068828 97.918594 
Q 71.403516 97.052656 71.616016 96.144219 
Q 71.833828 95.230469 72.014453 94.332656 
Q 72.200391 93.434844 72.396953 92.574219 
Q 72.598828 91.708281 72.928203 90.980469 
Q 73.294766 90.911406 73.741016 91.060156 
Q 74.192578 91.208906 74.293516 91.442656 
Q 75.154141 90.778594 75.818203 89.832969 
Q 76.482266 88.887344 77.178203 87.989531 
Q 77.879453 87.091719 78.724141 86.395781 
Q 79.568828 85.699844 80.865078 85.567031 
Q 81.529141 86.066406 82.341953 86.581719 
Q 83.154766 87.091719 83.686016 87.925781 
Q 83.951641 88.058594 84.132266 88.207344 
Q 84.318203 88.356094 84.583828 88.520781 
L 84.583828 88.919219 
Q 84.982266 89.285781 85.231953 89.769219 
Q 85.481641 90.247344 85.678203 90.794531 
Q 85.880078 91.341719 86.076641 91.894219 
Q 86.278516 92.441406 86.544141 92.935469 
Q 86.475078 93.105469 86.475078 93.222344 
Q 86.475078 93.333906 86.522891 93.466719 
Q 86.576016 93.599531 86.607891 93.732344 
Q 86.645078 93.865156 86.607891 94.098906 
Q 86.512266 95.559844 85.662266 96.457656 
Q 84.817578 97.355469 83.622266 97.934531 
Q 82.426953 98.513594 81.061641 98.912031 
Q 79.701641 99.310469 78.607266 99.777969 
Q 78.607266 99.910781 78.724141 99.910781 
Q 78.841016 99.910781 78.809141 100.075469 
Q 79.606016 100.574844 80.068203 100.872344 
Q 80.535703 101.169844 80.950078 101.371719 
Q 81.364453 101.568281 81.842578 101.722344 
Q 82.326016 101.871094 83.191953 102.067656 
Q 84.052578 102.269531 84.530703 102.386406 
Q 85.014141 102.497969 85.412578 102.582969 
Q 85.811016 102.667969 86.225391 102.715781 
Q 86.645078 102.763594 87.404766 102.832656 
Q 87.707578 103.130156 87.920078 103.544531 
Q 88.137891 103.958906 88.201641 104.378594 
Q 88.270703 104.792969 88.233516 105.175469 
Q 88.201641 105.552656 88.005078 105.786406 
Q 88.036953 105.887344 88.153828 105.871406 
Q 88.270703 105.855469 88.403516 105.887344 
Q 88.201641 106.020156 88.068828 106.216719 
Q 87.936016 106.418594 87.803203 106.615156 
Q 87.670391 106.817031 87.505703 106.965781 
Q 87.341016 107.114531 87.043516 107.151719 
Q 86.012891 107.550156 84.451016 107.199531 
Q 82.889141 106.848906 80.498516 105.919219 
Q 79.303203 105.457031 78.554141 105.106406 
Q 77.810391 104.755781 77.263203 104.410469 
Q 76.716016 104.059844 76.264453 103.661406 
Q 75.818203 103.262969 75.186016 102.699844 
z
M 79.935391 91.309844 
Q 79.568828 91.841094 79.122578 92.276719 
Q 78.676328 92.707031 78.256641 93.153281 
Q 77.842266 93.599531 77.507578 94.152031 
Q 77.178203 94.699219 77.045391 95.427031 
Q 78.208828 95.294219 79.467891 94.778906 
Q 80.732266 94.263594 81.863828 93.801406 
Q 81.731016 92.770781 81.146641 92.143906 
Q 80.567578 91.511719 79.935391 91.309844 
z
M 105.799297 103.363906 
Q 105.602734 103.927031 105.220234 104.511406 
Q 104.837734 105.090469 104.322422 105.542031 
Q 103.807109 105.988281 103.174922 106.285781 
Q 102.548047 106.583281 101.852109 106.620469 
Q 101.416484 106.519531 101.267734 106.402656 
Q 101.118984 106.285781 100.954297 106.184844 
Q 100.853359 106.121094 100.768359 106.073281 
Q 100.688672 106.020156 100.619609 105.988281 
L 100.221172 105.818281 
L 100.353984 105.387969 
Q 100.423047 105.122344 100.322109 104.973594 
Q 100.221172 104.824844 99.923672 104.559219 
Q 99.822734 104.458281 99.721797 104.362656 
Q 99.626172 104.261719 99.557109 104.160781 
L 98.993984 103.528594 
L 99.891797 103.294844 
Q 100.720547 103.066406 101.002109 102.699844 
Q 101.283672 102.333281 101.219922 101.472656 
Q 100.555859 101.339844 100.104297 101.440781 
Q 99.658047 101.536406 99.195859 101.669219 
Q 98.595547 101.833906 97.979297 101.950781 
Q 97.368359 102.067656 96.635234 102.067656 
Q 96.369609 102.067656 96.135859 102.051719 
Q 95.907422 102.035781 95.641797 102.003906 
L 95.307109 101.934844 
Q 95.243359 101.568281 95.174297 101.520469 
Q 95.110547 101.472656 95.041484 101.403594 
Q 94.876797 101.238906 94.690859 100.957344 
Q 94.510234 100.675781 94.611172 100.240156 
Q 94.446484 99.942656 94.414609 99.645156 
Q 94.212734 100.043594 94.111797 100.473906 
L 93.978984 100.808594 
L 93.649609 100.872344 
Q 93.580547 100.904219 93.548672 101.021094 
Q 93.516797 101.137969 93.516797 101.207031 
L 93.352109 101.770156 
Q 93.283047 101.833906 93.213984 101.887031 
Q 93.150234 101.934844 93.086484 102.003906 
Q 93.017422 102.301406 92.916484 102.598906 
Q 92.820859 102.896406 92.719922 103.162031 
Q 92.555234 103.597656 92.438359 104.012031 
Q 92.321484 104.426406 92.353359 104.824844 
L 92.220547 105.191406 
Q 92.055859 105.387969 91.853984 105.504844 
Q 91.657422 105.621719 91.455547 105.722656 
Q 91.391797 105.786406 91.274922 105.839531 
Q 91.158047 105.887344 91.094297 105.919219 
L 90.993359 106.285781 
L 90.594922 106.354844 
Q 90.228359 106.418594 90.079609 106.450469 
Q 89.930859 106.487656 89.728984 106.487656 
L 89.399609 106.450469 
Q 89.033047 106.152969 88.831172 105.972344 
Q 88.634609 105.786406 88.368984 105.621719 
Q 88.071484 105.223281 88.039609 105.026719 
Q 88.002422 104.824844 87.970547 104.660156 
Q 87.901484 104.458281 87.885547 104.325469 
Q 87.869609 104.192656 87.805859 104.128906 
L 87.370234 103.730469 
L 87.736797 103.427656 
L 87.768672 102.864531 
Q 88.438047 101.169844 89.181797 99.613281 
Q 89.930859 98.051406 90.727734 96.425781 
Q 90.993359 95.894531 91.243047 95.363281 
Q 91.492734 94.832031 91.758359 94.300781 
Q 91.721172 94.199844 91.721172 94.067031 
Q 91.721172 93.934219 91.790234 93.769531 
Q 92.156797 93.201094 92.385234 92.754844 
Q 92.618984 92.308594 92.852734 91.841094 
Q 93.118359 91.277969 93.399922 90.746719 
Q 93.681484 90.215469 94.111797 89.652344 
L 94.643047 89.418594 
Q 94.743984 89.386719 94.876797 89.338906 
Q 95.009609 89.285781 95.174297 89.285781 
L 95.673672 89.349531 
Q 96.603359 88.919219 97.299297 88.138281 
Q 98.000547 87.357344 98.728359 86.262969 
L 99.063047 85.800781 
L 99.493359 86.066406 
Q 99.658047 86.162031 99.955547 86.247031 
Q 100.258359 86.332031 100.587734 86.427656 
Q 101.188047 86.560469 101.719297 86.730469 
Q 102.250547 86.895156 102.579922 87.224531 
Q 102.781797 87.755781 102.813672 88.021406 
Q 102.845547 88.287031 102.914609 88.552656 
Q 103.010234 89.121094 103.095234 89.684219 
Q 103.180234 90.247344 103.212109 90.943281 
Q 103.376797 91.511719 103.493672 92.058906 
Q 103.610547 92.606094 103.711484 93.169219 
Q 103.876172 93.966094 104.040859 94.715156 
Q 104.205547 95.458906 104.471172 96.122969 
Q 104.736797 96.122969 104.805859 96.160156 
Q 104.970547 96.091094 105.151172 96.059219 
Q 105.337109 96.027344 105.570859 95.990156 
L 105.932109 95.958281 
L 106.064922 96.292969 
Q 106.102109 96.457656 106.399609 96.622344 
Q 106.829922 96.654219 107.026484 96.808281 
Q 107.228359 96.957031 107.393047 97.121719 
Q 107.525859 97.254531 107.658672 97.318281 
L 108.158047 97.520156 
L 107.892422 98.019531 
Q 107.563047 98.614531 106.946797 99.161719 
Q 106.330547 99.708906 105.570859 100.075469 
Q 105.602734 100.277344 105.618672 100.457969 
Q 105.634609 100.638594 105.703672 100.840469 
Q 105.799297 101.403594 105.863047 102.003906 
Q 105.932109 102.598906 105.868359 103.231094 
L 105.799297 103.363906 
z
M 96.204922 97.621094 
Q 97.203672 97.552031 98.016484 97.472344 
Q 98.829297 97.387344 99.822734 97.185469 
Q 99.594297 96.192031 99.328672 95.113594 
Q 99.063047 94.035156 98.760234 92.972656 
L 98.563672 93.302031 
Q 97.899609 93.997969 97.283359 94.863906 
Q 96.672422 95.724531 96.236797 96.489531 
Q 96.040234 96.787031 95.838359 97.089844 
Q 95.641797 97.387344 95.477109 97.684844 
Q 95.673672 97.652969 95.854297 97.652969 
Q 96.040234 97.652969 96.204922 97.621094 
z
" style="fill: #4682b4; stroke: #ffffff; stroke-width: 3"/>
    <path d="M 16.88 89.716094 
Q 16.81625 89.285781 16.715312 89.184844 
Q 16.949062 88.589844 17.060625 88.010781 
Q 17.1775 87.426406 17.246562 86.895156 
Q 17.310312 86.427656 17.395312 86.029219 
Q 17.480312 85.630781 17.613125 85.269531 
Q 18.17625 85.136719 18.457812 84.786094 
Q 18.739375 84.435469 18.904062 84.169844 
Q 19.504375 84.137969 19.685 84.339844 
Q 19.870937 84.536406 20.099375 85.003906 
Q 20.269375 85.365156 20.566875 85.784844 
Q 20.864375 86.199219 21.464687 86.427656 
Q 21.560312 86.794219 21.693125 87.128906 
Q 21.825937 87.458281 21.995937 87.824844 
Q 22.293437 88.520781 22.559062 89.269844 
Q 22.824687 90.013594 22.856562 90.677656 
Q 22.458125 91.442656 22.240312 92.441406 
Q 22.027812 93.434844 21.974687 94.449531 
Q 21.926875 95.458906 22.027812 96.388594 
Q 22.12875 97.318281 22.357187 97.950469 
L 22.559062 98.481719 
L 23.286875 98.417969 
Q 24.482187 98.115156 25.44375 97.737969 
Q 26.410625 97.355469 27.239375 96.824219 
Q 28.068125 96.292969 28.833125 95.612969 
Q 29.598125 94.927656 30.426875 93.997969 
Q 31.22375 93.068281 31.855937 91.894219 
Q 32.488125 90.714844 32.9025 89.455781 
Q 33.316875 88.191406 33.545312 86.932344 
Q 33.779062 85.667969 33.848125 84.568281 
Q 34.480312 84.270781 34.544062 83.606719 
L 34.443125 83.176406 
Q 34.3475 83.011719 34.363437 82.862969 
Q 34.379375 82.708906 34.443125 82.576094 
Q 34.70875 81.816406 35.574687 81.449844 
Q 36.169687 81.848281 36.685 82.315781 
Q 37.200312 82.777969 37.630625 83.240156 
Q 37.699687 84.137969 37.89625 84.786094 
Q 38.098125 85.434219 38.331875 86.029219 
Q 38.560312 86.597656 38.740937 87.128906 
Q 38.926875 87.660156 38.995937 88.419844 
Q 38.66125 89.418594 38.5125 90.300469 
Q 38.36375 91.177031 38.230937 92.138594 
L 38.161875 92.505156 
Q 37.566875 93.535781 36.9825 94.614219 
Q 36.403437 95.692656 36.036875 96.489531 
Q 35.840312 96.691406 35.691562 96.957031 
Q 35.542812 97.222656 35.41 97.488281 
Q 35.340937 97.583906 35.224062 97.817656 
Q 35.107187 98.051406 35.011562 98.152344 
L 34.214687 97.849531 
L 34.012812 98.880156 
L 33.481562 99.012969 
L 33.083125 99.480469 
Q 32.318125 100.808594 31.473437 101.706406 
Q 30.62875 102.598906 29.582187 103.300156 
Q 28.535625 103.996094 27.223437 104.612344 
Q 25.91125 105.223281 24.216562 105.919219 
Q 23.5525 105.818281 23.069062 105.802344 
Q 22.590937 105.786406 22.12875 105.754531 
Q 21.66125 105.754531 21.230937 105.722656 
Q 20.800625 105.685469 20.232187 105.621719 
Q 20.099375 105.324219 19.865625 105.191406 
Q 19.637187 105.058594 19.435312 105.058594 
Q 18.77125 104.723906 18.436562 104.128906 
Q 18.107187 103.528594 17.745937 102.800781 
Q 17.575937 102.402344 17.395312 102.003906 
Q 17.214687 101.605469 16.949062 101.238906 
L 17.613125 101.037031 
L 16.747187 100.043594 
Q 16.64625 99.942656 16.529375 99.847031 
Q 16.417812 99.746094 16.316875 99.613281 
L 16.316875 98.981094 
Q 16.184062 96.255781 16.2 93.950156 
Q 16.215937 91.644531 16.81625 89.880781 
L 16.88 89.716094 
z
M 46.895625 105.786406 
Q 45.965937 106.083906 44.871562 106.381406 
Q 43.777187 106.684219 42.6775 106.684219 
Q 41.02 106.684219 40.058437 105.855469 
Q 39.888437 105.488906 39.755625 105.356094 
Q 39.66 105.223281 39.575 105.074531 
Q 39.49 104.925781 39.458125 104.660156 
Q 39.059687 104.192656 38.825937 103.581719 
Q 38.5975 102.965469 38.5125 102.317344 
Q 38.4275 101.669219 38.475312 101.005156 
Q 38.528437 100.341094 38.693125 99.746094 
Q 38.762187 99.613281 38.778125 99.480469 
Q 38.794062 99.347656 38.825937 99.177656 
Q 38.95875 98.646406 39.1075 98.152344 
Q 39.261562 97.652969 39.527187 97.286406 
Q 39.394375 96.988906 39.527187 96.622344 
Q 39.66 96.255781 39.824687 95.958281 
Q 40.286875 94.699219 40.600312 93.817344 
Q 40.919062 92.935469 41.25375 92.074844 
Q 41.816875 90.582031 42.310937 89.121094 
Q 42.810312 87.660156 43.20875 85.965469 
Q 43.474375 85.800781 43.607187 85.731719 
Q 43.809062 85.667969 43.941875 85.630781 
Q 44.536875 85.933594 45.33375 86.215156 
Q 46.130625 86.496719 46.661875 86.496719 
Q 46.9275 86.661406 46.99125 86.746406 
Q 47.060312 86.826094 47.129375 86.895156 
Q 47.495937 87.325469 47.761562 87.777031 
Q 48.027187 88.223281 47.92625 88.951094 
Q 47.724375 89.253906 47.62875 89.253906 
Q 47.45875 89.917969 47.278125 90.385469 
Q 47.0975 90.847656 46.895625 91.309844 
Q 46.661875 91.809219 46.46 92.308594 
Q 46.263437 92.802656 46.130625 93.535781 
Q 45.997812 93.700469 45.95 93.833281 
Q 45.902187 93.966094 45.833125 94.130781 
Q 45.769375 94.300781 45.684375 94.481406 
Q 45.599375 94.662031 45.434687 94.794844 
Q 45.33375 95.660781 45.115937 96.192031 
Q 44.903437 96.723281 44.669687 97.254531 
Q 44.27125 98.216094 43.957812 99.182969 
Q 43.644375 100.144531 43.575312 101.371719 
Q 43.74 101.302656 43.88875 101.302656 
Q 44.042812 101.302656 44.175625 101.302656 
Q 44.473125 101.302656 44.871562 101.403594 
Q 45.865 100.872344 47.044375 100.776719 
Q 48.22375 100.675781 49.387187 100.638594 
Q 49.849375 100.638594 50.311562 100.638594 
Q 50.779062 100.638594 51.1775 100.574844 
Q 51.480312 100.739531 51.56 100.755469 
Q 51.645 100.771406 51.809687 100.771406 
Q 52.043437 100.771406 52.208125 100.808594 
Q 52.606562 101.169844 52.973125 101.339844 
Q 53.339687 101.504531 53.738125 101.637344 
Q 54.099375 101.770156 54.45 101.918906 
Q 54.800625 102.067656 55.13 102.333281 
L 55.36375 103.762344 
Q 55.5975 104.059844 55.560312 104.160781 
Q 55.560312 104.426406 55.4275 104.559219 
L 55.496562 104.925781 
Q 54.997187 105.021406 54.81125 105.154219 
Q 54.630625 105.287031 54.465937 105.457031 
Q 54.200312 105.488906 54.083437 105.488906 
Q 53.966562 105.488906 53.870937 105.488906 
Q 53.403437 105.488906 52.739375 105.653594 
Q 51.841562 105.356094 50.88 105.356094 
Q 50.513437 105.356094 50.115 105.387969 
Q 49.716562 105.419844 49.318125 105.457031 
Q 48.919687 105.520781 48.505312 105.557969 
Q 48.090937 105.589844 47.660625 105.589844 
L 46.895625 105.786406 
z
M 72.430156 90.183594 
Q 71.601406 90.183594 70.639844 90.300469 
Q 69.678281 90.412031 68.748594 90.544844 
Q 68.084531 90.645781 67.468281 90.714844 
Q 66.852031 90.778594 66.357969 90.810469 
Q 66.124219 91.543594 65.890469 92.106719 
Q 65.656719 92.669844 65.391094 93.201094 
Q 65.125469 93.769531 64.907656 94.348594 
Q 64.695156 94.927656 64.498594 95.591719 
Q 64.163906 96.122969 63.946094 96.574531 
Q 63.733594 97.020781 63.600781 97.583906 
Q 63.202344 98.083281 63.000469 98.630469 
Q 62.803906 99.177656 62.702969 99.576094 
L 62.570156 99.974531 
Q 62.373594 100.176406 62.336406 100.293281 
Q 62.304531 100.410156 62.171719 100.505781 
Q 62.139844 100.872344 61.937969 101.238906 
Q 61.874219 101.403594 61.837031 101.552344 
Q 61.805156 101.701094 61.805156 101.770156 
Q 61.805156 102.099531 61.640469 102.200469 
Q 61.672344 102.365156 61.640469 102.551094 
Q 61.608594 102.731719 61.576719 102.896406 
Q 61.475781 103.294844 61.507656 103.528594 
Q 61.608594 103.661406 61.688281 103.762344 
Q 61.773281 103.863281 61.805156 104.027969 
Q 62.007031 104.160781 62.107969 104.192656 
Q 62.240781 104.293594 62.506406 104.426406 
L 62.803906 104.755781 
Q 62.968594 105.722656 62.506406 106.285781 
Q 62.007031 106.917969 60.811719 106.917969 
L 60.413281 106.917969 
Q 60.248594 106.753281 60.211406 106.652344 
Q 59.945781 106.551406 59.781094 106.482344 
Q 59.616406 106.418594 59.483594 106.222031 
Q 59.053281 106.020156 58.787656 105.887344 
L 58.484844 105.722656 
Q 58.484844 105.356094 58.484844 105.324219 
Q 58.256406 105.021406 58.139531 104.660156 
Q 58.022656 104.293594 57.953594 103.927031 
Q 57.889844 103.629531 57.804844 103.363906 
Q 57.725156 103.098281 57.592344 102.896406 
Q 57.523281 100.973281 57.953594 99.645156 
Q 58.389219 98.317031 58.851406 97.089844 
Q 59.117031 96.425781 59.382656 95.745781 
Q 59.648281 95.060469 59.850156 94.332656 
L 60.147656 93.997969 
Q 60.381406 93.466719 60.530156 93.121406 
Q 60.678906 92.770781 60.843594 92.404219 
Q 60.944531 92.175781 61.024219 91.957969 
Q 61.109219 91.740156 61.178281 91.575469 
Q 60.976406 91.575469 60.811719 91.591406 
Q 60.647031 91.607344 60.477031 91.644531 
Q 60.280469 91.676406 60.110469 91.692344 
Q 59.945781 91.708281 59.781094 91.708281 
Q 59.547344 91.708281 59.451719 91.676406 
Q 59.085156 91.841094 58.654844 91.841094 
L 58.320156 91.841094 
Q 58.219219 91.841094 58.134219 91.825156 
Q 58.054531 91.809219 57.990781 91.809219 
Q 57.656094 91.809219 57.459531 91.910156 
Q 57.061094 91.910156 56.694531 91.910156 
L 56.359844 91.910156 
Q 56.296094 91.910156 56.195156 91.926094 
Q 56.094219 91.942031 56.030469 91.942031 
Q 55.796719 91.942031 55.531094 91.894219 
Q 55.265469 91.841094 54.967969 91.676406 
Q 54.569531 91.145156 54.436719 91.113281 
L 54.139219 90.714844 
Q 54.102031 90.512969 54.032969 90.332344 
Q 53.969219 90.146406 53.905469 89.917969 
Q 53.772656 89.583281 53.655781 89.200781 
Q 53.538906 88.818281 53.538906 88.287031 
Q 53.570781 88.021406 53.671719 87.888594 
Q 53.772656 87.755781 53.836406 87.660156 
L 53.937344 87.160781 
L 54.367656 87.192656 
L 55.297344 87.192656 
Q 56.359844 87.192656 57.454219 87.112969 
Q 58.553906 87.027969 59.717344 86.927031 
Q 60.381406 86.863281 61.061406 86.799531 
Q 61.741406 86.730469 62.469219 86.661406 
Q 62.602031 86.363906 62.734844 86.098281 
L 63.069531 85.933594 
Q 63.664531 85.896406 63.914219 86.082344 
Q 64.163906 86.262969 64.328594 86.427656 
Q 65.061719 86.363906 65.805469 86.284219 
Q 66.554531 86.199219 67.319531 86.066406 
Q 68.445781 85.896406 69.593281 85.763594 
Q 70.740781 85.630781 71.803281 85.630781 
Q 72.265469 85.630781 72.695781 85.667969 
Q 73.131406 85.699844 73.492656 85.763594 
L 73.827344 85.997344 
Q 73.928281 86.199219 74.108906 86.363906 
Q 74.289531 86.528594 74.491406 86.693281 
Q 74.889844 87.059844 75.288281 87.559219 
Q 75.686719 88.058594 75.585781 89.020156 
Q 75.320156 89.418594 75.187344 89.482344 
L 74.889844 89.880781 
L 74.555156 89.848906 
Q 74.358594 89.848906 74.188594 89.902031 
Q 74.023906 89.949844 73.859219 90.013594 
Q 73.726406 90.082656 73.593594 90.135781 
Q 73.460781 90.183594 73.296094 90.215469 
Q 72.998594 90.215469 72.812656 90.199531 
Q 72.632031 90.183594 72.430156 90.183594 
z
M 75.186016 102.699844 
Q 74.824766 104.027969 74.537891 104.707969 
Q 74.256328 105.387969 73.693203 106.121094 
Q 73.262891 106.052031 73.092891 106.216719 
Q 72.928203 106.386719 72.731641 106.519531 
Q 72.434141 106.583281 72.301328 106.514219 
Q 72.168516 106.450469 72.067578 106.365469 
Q 71.966641 106.285781 71.817891 106.200781 
Q 71.669141 106.121094 71.371641 106.121094 
Q 71.302578 105.855469 71.217578 105.621719 
Q 71.137891 105.387969 70.771328 105.457031 
Q 70.840391 105.191406 70.803203 105.010781 
Q 70.771328 104.824844 70.718203 104.676094 
Q 70.670391 104.527344 70.638516 104.378594 
Q 70.606641 104.224531 70.670391 103.996094 
Q 70.505703 103.996094 70.404766 103.762344 
Q 70.309141 103.528594 70.176328 103.294844 
Q 70.271953 102.699844 70.372891 102.168594 
Q 70.473828 101.637344 70.622578 101.175156 
Q 70.771328 100.707656 70.872266 100.245469 
Q 70.973203 99.777969 70.771328 99.278594 
Q 70.904141 99.379531 70.967891 99.230781 
Q 71.036953 99.082031 71.068828 98.832344 
Q 71.106016 98.582656 71.106016 98.332969 
Q 71.106016 98.083281 71.068828 97.918594 
Q 71.403516 97.052656 71.616016 96.144219 
Q 71.833828 95.230469 72.014453 94.332656 
Q 72.200391 93.434844 72.396953 92.574219 
Q 72.598828 91.708281 72.928203 90.980469 
Q 73.294766 90.911406 73.741016 91.060156 
Q 74.192578 91.208906 74.293516 91.442656 
Q 75.154141 90.778594 75.818203 89.832969 
Q 76.482266 88.887344 77.178203 87.989531 
Q 77.879453 87.091719 78.724141 86.395781 
Q 79.568828 85.699844 80.865078 85.567031 
Q 81.529141 86.066406 82.341953 86.581719 
Q 83.154766 87.091719 83.686016 87.925781 
Q 83.951641 88.058594 84.132266 88.207344 
Q 84.318203 88.356094 84.583828 88.520781 
L 84.583828 88.919219 
Q 84.982266 89.285781 85.231953 89.769219 
Q 85.481641 90.247344 85.678203 90.794531 
Q 85.880078 91.341719 86.076641 91.894219 
Q 86.278516 92.441406 86.544141 92.935469 
Q 86.475078 93.105469 86.475078 93.222344 
Q 86.475078 93.333906 86.522891 93.466719 
Q 86.576016 93.599531 86.607891 93.732344 
Q 86.645078 93.865156 86.607891 94.098906 
Q 86.512266 95.559844 85.662266 96.457656 
Q 84.817578 97.355469 83.622266 97.934531 
Q 82.426953 98.513594 81.061641 98.912031 
Q 79.701641 99.310469 78.607266 99.777969 
Q 78.607266 99.910781 78.724141 99.910781 
Q 78.841016 99.910781 78.809141 100.075469 
Q 79.606016 100.574844 80.068203 100.872344 
Q 80.535703 101.169844 80.950078 101.371719 
Q 81.364453 101.568281 81.842578 101.722344 
Q 82.326016 101.871094 83.191953 102.067656 
Q 84.052578 102.269531 84.530703 102.386406 
Q 85.014141 102.497969 85.412578 102.582969 
Q 85.811016 102.667969 86.225391 102.715781 
Q 86.645078 102.763594 87.404766 102.832656 
Q 87.707578 103.130156 87.920078 103.544531 
Q 88.137891 103.958906 88.201641 104.378594 
Q 88.270703 104.792969 88.233516 105.175469 
Q 88.201641 105.552656 88.005078 105.786406 
Q 88.036953 105.887344 88.153828 105.871406 
Q 88.270703 105.855469 88.403516 105.887344 
Q 88.201641 106.020156 88.068828 106.216719 
Q 87.936016 106.418594 87.803203 106.615156 
Q 87.670391 106.817031 87.505703 106.965781 
Q 87.341016 107.114531 87.043516 107.151719 
Q 86.012891 107.550156 84.451016 107.199531 
Q 82.889141 106.848906 80.498516 105.919219 
Q 79.303203 105.457031 78.554141 105.106406 
Q 77.810391 104.755781 77.263203 104.410469 
Q 76.716016 104.059844 76.264453 103.661406 
Q 75.818203 103.262969 75.186016 102.699844 
z
M 79.935391 91.309844 
Q 79.568828 91.841094 79.122578 92.276719 
Q 78.676328 92.707031 78.256641 93.153281 
Q 77.842266 93.599531 77.507578 94.152031 
Q 77.178203 94.699219 77.045391 95.427031 
Q 78.208828 95.294219 79.467891 94.778906 
Q 80.732266 94.263594 81.863828 93.801406 
Q 81.731016 92.770781 81.146641 92.143906 
Q 80.567578 91.511719 79.935391 91.309844 
z
M 105.799297 103.363906 
Q 105.602734 103.927031 105.220234 104.511406 
Q 104.837734 105.090469 104.322422 105.542031 
Q 103.807109 105.988281 103.174922 106.285781 
Q 102.548047 106.583281 101.852109 106.620469 
Q 101.416484 106.519531 101.267734 106.402656 
Q 101.118984 106.285781 100.954297 106.184844 
Q 100.853359 106.121094 100.768359 106.073281 
Q 100.688672 106.020156 100.619609 105.988281 
L 100.221172 105.818281 
L 100.353984 105.387969 
Q 100.423047 105.122344 100.322109 104.973594 
Q 100.221172 104.824844 99.923672 104.559219 
Q 99.822734 104.458281 99.721797 104.362656 
Q 99.626172 104.261719 99.557109 104.160781 
L 98.993984 103.528594 
L 99.891797 103.294844 
Q 100.720547 103.066406 101.002109 102.699844 
Q 101.283672 102.333281 101.219922 101.472656 
Q 100.555859 101.339844 100.104297 101.440781 
Q 99.658047 101.536406 99.195859 101.669219 
Q 98.595547 101.833906 97.979297 101.950781 
Q 97.368359 102.067656 96.635234 102.067656 
Q 96.369609 102.067656 96.135859 102.051719 
Q 95.907422 102.035781 95.641797 102.003906 
L 95.307109 101.934844 
Q 95.243359 101.568281 95.174297 101.520469 
Q 95.110547 101.472656 95.041484 101.403594 
Q 94.876797 101.238906 94.690859 100.957344 
Q 94.510234 100.675781 94.611172 100.240156 
Q 94.446484 99.942656 94.414609 99.645156 
Q 94.212734 100.043594 94.111797 100.473906 
L 93.978984 100.808594 
L 93.649609 100.872344 
Q 93.580547 100.904219 93.548672 101.021094 
Q 93.516797 101.137969 93.516797 101.207031 
L 93.352109 101.770156 
Q 93.283047 101.833906 93.213984 101.887031 
Q 93.150234 101.934844 93.086484 102.003906 
Q 93.017422 102.301406 92.916484 102.598906 
Q 92.820859 102.896406 92.719922 103.162031 
Q 92.555234 103.597656 92.438359 104.012031 
Q 92.321484 104.426406 92.353359 104.824844 
L 92.220547 105.191406 
Q 92.055859 105.387969 91.853984 105.504844 
Q 91.657422 105.621719 91.455547 105.722656 
Q 91.391797 105.786406 91.274922 105.839531 
Q 91.158047 105.887344 91.094297 105.919219 
L 90.993359 106.285781 
L 90.594922 106.354844 
Q 90.228359 106.418594 90.079609 106.450469 
Q 89.930859 106.487656 89.728984 106.487656 
L 89.399609 106.450469 
Q 89.033047 106.152969 88.831172 105.972344 
Q 88.634609 105.786406 88.368984 105.621719 
Q 88.071484 105.223281 88.039609 105.026719 
Q 88.002422 104.824844 87.970547 104.660156 
Q 87.901484 104.458281 87.885547 104.325469 
Q 87.869609 104.192656 87.805859 104.128906 
L 87.370234 103.730469 
L 87.736797 103.427656 
L 87.768672 102.864531 
Q 88.438047 101.169844 89.181797 99.613281 
Q 89.930859 98.051406 90.727734 96.425781 
Q 90.993359 95.894531 91.243047 95.363281 
Q 91.492734 94.832031 91.758359 94.300781 
Q 91.721172 94.199844 91.721172 94.067031 
Q 91.721172 93.934219 91.790234 93.769531 
Q 92.156797 93.201094 92.385234 92.754844 
Q 92.618984 92.308594 92.852734 91.841094 
Q 93.118359 91.277969 93.399922 90.746719 
Q 93.681484 90.215469 94.111797 89.652344 
L 94.643047 89.418594 
Q 94.743984 89.386719 94.876797 89.338906 
Q 95.009609 89.285781 95.174297 89.285781 
L 95.673672 89.349531 
Q 96.603359 88.919219 97.299297 88.138281 
Q 98.000547 87.357344 98.728359 86.262969 
L 99.063047 85.800781 
L 99.493359 86.066406 
Q 99.658047 86.162031 99.955547 86.247031 
Q 100.258359 86.332031 100.587734 86.427656 
Q 101.188047 86.560469 101.719297 86.730469 
Q 102.250547 86.895156 102.579922 87.224531 
Q 102.781797 87.755781 102.813672 88.021406 
Q 102.845547 88.287031 102.914609 88.552656 
Q 103.010234 89.121094 103.095234 89.684219 
Q 103.180234 90.247344 103.212109 90.943281 
Q 103.376797 91.511719 103.493672 92.058906 
Q 103.610547 92.606094 103.711484 93.169219 
Q 103.876172 93.966094 104.040859 94.715156 
Q 104.205547 95.458906 104.471172 96.122969 
Q 104.736797 96.122969 104.805859 96.160156 
Q 104.970547 96.091094 105.151172 96.059219 
Q 105.337109 96.027344 105.570859 95.990156 
L 105.932109 95.958281 
L 106.064922 96.292969 
Q 106.102109 96.457656 106.399609 96.622344 
Q 106.829922 96.654219 107.026484 96.808281 
Q 107.228359 96.957031 107.393047 97.121719 
Q 107.525859 97.254531 107.658672 97.318281 
L 108.158047 97.520156 
L 107.892422 98.019531 
Q 107.563047 98.614531 106.946797 99.161719 
Q 106.330547 99.708906 105.570859 100.075469 
Q 105.602734 100.277344 105.618672 100.457969 
Q 105.634609 100.638594 105.703672 100.840469 
Q 105.799297 101.403594 105.863047 102.003906 
Q 105.932109 102.598906 105.868359 103.231094 
L 105.799297 103.363906 
z
M 96.204922 97.621094 
Q 97.203672 97.552031 98.016484 97.472344 
Q 98.829297 97.387344 99.822734 97.185469 
Q 99.594297 96.192031 99.328672 95.113594 
Q 99.063047 94.035156 98.760234 92.972656 
L 98.563672 93.302031 
Q 97.899609 93.997969 97.283359 94.863906 
Q 96.672422 95.724531 96.236797 96.489531 
Q 96.040234 96.787031 95.838359 97.089844 
Q 95.641797 97.387344 95.477109 97.684844 
Q 95.673672 97.652969 95.854297 97.652969 
Q 96.040234 97.652969 96.204922 97.621094 
z
" style="fill: #4682b4"/>
   </g>
   <g id="text_2">
    <path d="M 128.979062 85.678594 
Q 128.979062 88.770469 127.04 90.725469 
Q 125.100937 92.680469 122.040937 92.680469 
L 114.258125 92.680469 
L 114.258125 103.188594 
L 111.091875 103.188594 
L 111.091875 78.400469 
L 121.329062 78.400469 
Q 125 78.400469 126.986875 80.291719 
Q 128.979062 82.177656 128.979062 85.678594 
z
M 124.405 88.738594 
Q 125.68 87.580469 125.68 85.540469 
Q 125.68 83.500469 124.405 82.347656 
Q 123.13 81.189531 120.850937 81.189531 
L 114.258125 81.189531 
L 114.258125 89.896719 
L 120.850937 89.896719 
Q 123.13 89.896719 124.405 88.738594 
z
M 135.809874 103.188594 
L 132.988936 103.188594 
L 132.988936 78.400469 
L 135.809874 78.400469 
L 135.809874 103.188594 
z
M 155.565998 94.417656 
Q 155.565998 98.800469 153.42506 101.249531 
Q 151.284123 103.698594 147.506935 103.698594 
Q 143.697873 103.698594 141.572873 101.233594 
Q 139.447873 98.768594 139.447873 94.279531 
Q 139.447873 89.827656 141.572873 87.346719 
Q 143.697873 84.860469 147.47506 84.860469 
Q 151.347873 84.860469 153.456935 87.346719 
Q 155.565998 89.827656 155.565998 94.417656 
z
M 152.606935 94.380469 
Q 152.606935 91.086719 151.262873 89.285781 
Q 149.924123 87.479531 147.506935 87.479531 
Q 145.126935 87.479531 143.766935 89.285781 
Q 142.406935 91.086719 142.406935 94.279531 
Q 142.406935 97.509531 143.766935 99.294531 
Q 145.126935 101.079531 147.506935 101.079531 
Q 149.85506 101.079531 151.230998 99.294531 
Q 152.606935 97.509531 152.606935 94.380469 
z
M 165.76812 103.188594 
Q 164.439995 103.427656 163.45187 103.427656 
Q 161.789057 103.427656 160.90187 102.699844 
Q 160.019995 101.966719 160.019995 100.606719 
L 160.019995 87.686719 
L 157.60812 87.686719 
L 157.60812 85.370469 
L 160.019995 85.370469 
L 160.019995 80.477656 
L 162.840932 80.477656 
L 162.840932 85.370469 
L 165.76812 85.370469 
L 165.76812 87.686719 
L 162.840932 87.686719 
L 162.840932 99.347656 
Q 162.840932 100.298594 163.164995 100.622656 
Q 163.489057 100.946719 164.40812 100.946719 
Q 165.25812 100.946719 165.76812 100.808594 
L 165.76812 103.188594 
z
" style="fill: #ffffff; stroke: #4682b4; stroke-width: 3"/>
    <path d="M 128.979062 85.678594 
Q 128.979062 88.770469 127.04 90.725469 
Q 125.100937 92.680469 122.040937 92.680469 
L 114.258125 92.680469 
L 114.258125 103.188594 
L 111.091875 103.188594 
L 111.091875 78.400469 
L 121.329062 78.400469 
Q 125 78.400469 126.986875 80.291719 
Q 128.979062 82.177656 128.979062 85.678594 
z
M 124.405 88.738594 
Q 125.68 87.580469 125.68 85.540469 
Q 125.68 83.500469 124.405 82.347656 
Q 123.13 81.189531 120.850937 81.189531 
L 114.258125 81.189531 
L 114.258125 89.896719 
L 120.850937 89.896719 
Q 123.13 89.896719 124.405 88.738594 
z
M 135.809874 103.188594 
L 132.988936 103.188594 
L 132.988936 78.400469 
L 135.809874 78.400469 
L 135.809874 103.188594 
z
M 155.565998 94.417656 
Q 155.565998 98.800469 153.42506 101.249531 
Q 151.284123 103.698594 147.506935 103.698594 
Q 143.697873 103.698594 141.572873 101.233594 
Q 139.447873 98.768594 139.447873 94.279531 
Q 139.447873 89.827656 141.572873 87.346719 
Q 143.697873 84.860469 147.47506 84.860469 
Q 151.347873 84.860469 153.456935 87.346719 
Q 155.565998 89.827656 155.565998 94.417656 
z
M 152.606935 94.380469 
Q 152.606935 91.086719 151.262873 89.285781 
Q 149.924123 87.479531 147.506935 87.479531 
Q 145.126935 87.479531 143.766935 89.285781 
Q 142.406935 91.086719 142.406935 94.279531 
Q 142.406935 97.509531 143.766935 99.294531 
Q 145.126935 101.079531 147.506935 101.079531 
Q 149.85506 101.079531 151.230998 99.294531 
Q 152.606935 97.509531 152.606935 94.380469 
z
M 165.76812 103.188594 
Q 164.439995 103.427656 163.45187 103.427656 
Q 161.789057 103.427656 160.90187 102.699844 
Q 160.019995 101.966719 160.019995 100.606719 
L 160.019995 87.686719 
L 157.60812 87.686719 
L 157.60812 85.370469 
L 160.019995 85.370469 
L 160.019995 80.477656 
L 162.840932 80.477656 
L 162.840932 85.370469 
L 165.76812 85.370469 
L 165.76812 87.686719 
L 162.840932 87.686719 
L 162.840932 99.347656 
Q 162.840932 100.298594 163.164995 100.622656 
Q 163.489057 100.946719 164.40812 100.946719 
Q 165.25812 100.946719 165.76812 100.808594 
L 165.76812 103.188594 
z
" style="fill: #ffffff"/>
   </g>
  </g>
 </g>
 <defs>
  <clipPath id="p6ede64d41f">
   <rect x="4.5" y="4.5" width="180" height="180"/>
  </clipPath>
 </defs>
</svg>
